<?xml version="1.0" encoding="UTF-8" standalone="no"?>
<!-- Created with Inkscape (http://www.inkscape.org/) -->

<svg
   xmlns:dc="http://purl.org/dc/elements/1.1/"
   xmlns:cc="http://creativecommons.org/ns#"
   xmlns:rdf="http://www.w3.org/1999/02/22-rdf-syntax-ns#"
   xmlns:svg="http://www.w3.org/2000/svg"
   xmlns="http://www.w3.org/2000/svg"
   xmlns:sodipodi="http://sodipodi.sourceforge.net/DTD/sodipodi-0.dtd"
   xmlns:inkscape="http://www.inkscape.org/namespaces/inkscape"
   version="1.1"
   id="svg4485"
   xml:space="preserve"
   width="255.15599"
   height="122.91066"
   viewBox="0 0 255.15599 122.91066"
   sodipodi:docname="graph.svg"
   inkscape:version="0.92.1 r15371"><metadata
     id="metadata4491"><rdf:RDF><cc:Work
         rdf:about=""><dc:format>image/svg+xml</dc:format><dc:type
           rdf:resource="http://purl.org/dc/dcmitype/StillImage" /><dc:title></dc:title></cc:Work></rdf:RDF></metadata><defs
     id="defs4489" /><sodipodi:namedview
     pagecolor="#ffffff"
     bordercolor="#666666"
     borderopacity="1"
     objecttolerance="10"
     gridtolerance="10"
     guidetolerance="10"
     inkscape:pageopacity="0"
     inkscape:pageshadow="2"
     inkscape:window-width="1920"
     inkscape:window-height="1017"
     id="namedview4487"
     showgrid="false"
     inkscape:zoom="2.1414752"
     inkscape:cx="216.89586"
     inkscape:cy="46.259244"
     inkscape:window-x="-8"
     inkscape:window-y="-8"
     inkscape:window-maximized="1"
     inkscape:current-layer="g4493" /><g
     id="g4493"
     inkscape:groupmode="layer"
     inkscape:label="OUTPUT"
     transform="matrix(1.3333333,0,0,-1.3333333,-316.81137,616.13033)"><path
       inkscape:connector-curvature="0"
       id="path4499"
       style="fill:#ffffff;fill-opacity:1;fill-rule:evenodd;stroke:none;stroke-width:0.1"
       d="m 333.30653,369.91476 h -95.698 v 92.183 h 191.367 v -92.183 h -95.669" /><path
       inkscape:connector-curvature="0"
       id="path4501"
       style="fill:#000000;fill-opacity:1;fill-rule:nonzero;stroke:none;stroke-width:0.1"
       d="m 250.63353,448.23276 -0.076,-0.381 h -1.658 c -0.148,0.344 -0.203,0.746 -0.248,1.208 -0.295,-0.415 -0.575,-0.776 -0.877,-0.989 -0.323,-0.186 -0.643,-0.319 -1.022,-0.319 -0.59,0 -1.035,0.191 -1.373,0.572 -0.361,0.391 -0.508,0.899 -0.508,1.553 -0.02,0.722 0.127,1.316 0.383,1.859 0.242,0.548 0.614,0.964 1.073,1.264 0.455,0.318 0.962,0.452 1.508,0.452 0.826,0 1.343,-0.478 1.53,-1.433 l 0.536,1.333 h 1.564 l -0.047,-0.233 c -0.146,-0.144 -0.379,-0.467 -0.705,-0.934 -0.325,-0.445 -0.661,-0.979 -1.008,-1.538 0.028,-0.56 0.129,-1.032 0.213,-1.414 0.081,-0.374 0.21,-0.684 0.381,-0.912 z m -2.012,2.808 c -0.003,0.589 -0.072,1.036 -0.214,1.352 -0.173,0.335 -0.334,0.473 -0.575,0.473 -0.256,0.029 -0.48,-0.144 -0.689,-0.431 -0.22,-0.282 -0.381,-0.689 -0.514,-1.205 -0.138,-0.508 -0.199,-1.025 -0.199,-1.528 -0.006,-0.416 0.051,-0.75 0.153,-0.952 0.079,-0.2 0.232,-0.301 0.389,-0.301 0.254,0.001 0.542,0.144 0.807,0.434 0.243,0.313 0.544,0.763 0.836,1.419 l 0.006,0.388 v 0.351" /><path
       inkscape:connector-curvature="0"
       id="path4503"
       style="fill:#000000;fill-opacity:1;fill-rule:nonzero;stroke:none;stroke-width:0.1"
       d="m 275.81953,448.16276 v -0.311 h -2.584 v 0.311 l 0.891,0.158 2.687,7.531 h 1.119 l 2.794,-7.531 0.995,-0.158 v -0.311 h -3.322 v 0.311 l 1.055,0.158 -0.785,2.303 h -3.109 l -0.795,-2.303 z m 1.271,6.845 -1.354,-3.856 h 2.75 z" /><path
       inkscape:connector-curvature="0"
       id="path4505"
       style="fill:#000000;fill-opacity:1;fill-rule:nonzero;stroke:none;stroke-width:0.1"
       d="m 307.02453,453.84576 c -0.004,0.483 -0.151,0.831 -0.452,1.05 -0.32,0.237 -0.787,0.328 -1.462,0.328 h -1.213 v -2.972 h 1.283 c 0.61,0 1.097,0.125 1.396,0.375 0.278,0.258 0.448,0.656 0.448,1.219 z m 0.589,-3.717 c 0,0.558 -0.184,0.954 -0.55,1.211 -0.384,0.26 -0.954,0.384 -1.761,0.384 h -1.405 v -3.308 c 0.511,-0.012 1.112,-0.036 1.721,-0.036 0.665,0.024 1.165,0.142 1.497,0.425 0.331,0.299 0.498,0.724 0.498,1.324 z m -5.855,-2.277 v 0.311 l 1.008,0.158 v 6.969 l -1.008,0.151 v 0.311 h 3.591 c 0.984,0 1.724,-0.148 2.184,-0.444 0.454,-0.28 0.691,-0.762 0.691,-1.403 -0.004,-0.446 -0.142,-0.855 -0.425,-1.18 -0.311,-0.315 -0.679,-0.54 -1.191,-0.65 0.675,-0.048 1.253,-0.28 1.639,-0.618 0.375,-0.307 0.58,-0.774 0.58,-1.305 -0.005,-0.755 -0.261,-1.328 -0.783,-1.717 -0.531,-0.383 -1.281,-0.583 -2.279,-0.583 h -2.507 -1.5" /><path
       inkscape:connector-curvature="0"
       id="path4507"
       style="fill:#000000;fill-opacity:1;fill-rule:nonzero;stroke:none;stroke-width:0.1"
       d="m 334.24653,447.75176 c -1.284,0 -2.265,0.348 -2.975,1.044 -0.73,0.715 -1.066,1.673 -1.066,2.929 -0.031,1.368 0.342,2.386 1.025,3.082 0.678,0.711 1.696,1.045 3.039,1.045 0.797,0 1.692,-0.099 2.63,-0.297 l 0.034,-1.703 h -0.386 l -0.176,1.009 c -0.292,0.197 -0.59,0.296 -0.952,0.386 -0.362,0.093 -0.728,0.136 -1.103,0.136 -1.004,0.023 -1.735,-0.296 -2.195,-0.889 -0.463,-0.573 -0.691,-1.512 -0.691,-2.756 -0.006,-1.142 0.241,-2.023 0.722,-2.628 0.469,-0.59 1.184,-0.906 2.106,-0.906 0.43,0.016 0.864,0.053 1.258,0.159 0.394,0.136 0.707,0.248 0.938,0.427 l 0.215,1.162 h 0.382 l -0.035,-1.833 c -0.86,-0.234 -1.783,-0.367 -2.77,-0.367" /><path
       inkscape:connector-curvature="0"
       id="path4509"
       style="fill:#000000;fill-opacity:1;fill-rule:nonzero;stroke:none;stroke-width:0.1"
       d="m 365.10553,451.86876 c -0.031,1.129 -0.298,1.935 -0.894,2.503 -0.627,0.594 -1.443,0.852 -2.546,0.852 h -1.061 v -6.797 c 0.441,-0.023 1.031,-0.047 1.679,-0.047 0.943,0.024 1.677,0.284 2.135,0.852 0.456,0.574 0.687,1.447 0.687,2.637 z m -3.062,3.883 c 1.444,0 2.532,-0.324 3.234,-0.972 0.681,-0.624 1.053,-1.622 1.053,-2.922 -0.006,-1.284 -0.338,-2.312 -1.015,-2.99 -0.677,-0.65 -1.687,-1.016 -3.032,-1.016 l -2.811,0.023 h -1.007 v 0.311 l 1.007,0.158 v 6.946 l -1.007,0.151 v 0.311 h 3.578" /><path
       inkscape:connector-curvature="0"
       id="path4511"
       style="fill:#000000;fill-opacity:1;fill-rule:nonzero;stroke:none;stroke-width:0.1"
       d="m 386.75453,448.16276 1.007,0.158 v 6.969 l -1.007,0.151 v 0.311 h 5.873 v -1.881 h -0.384 l -0.186,1.272 c -0.45,0.057 -1.065,0.081 -1.888,0.081 h -1.276 v -3.072 h 2.108 l 0.181,0.938 h 0.372 v -2.416 h -0.372 l -0.181,0.95 h -2.108 v -3.244 h 1.539 c 0.995,0.024 1.658,0.031 1.969,0.094 l 0.332,1.453 h 0.385 l -0.111,-2.075 h -6.253 v 0.311" /><path
       inkscape:connector-curvature="0"
       id="path4513"
       style="fill:#000000;fill-opacity:1;fill-rule:nonzero;stroke:none;stroke-width:0.1"
       d="m 417.30453,451.42376 v -3.103 l 1.306,-0.158 v -0.311 h -3.369 v 0.311 l 0.931,0.158 v 6.969 l -1.007,0.151 v 0.311 h 5.912 v -1.881 h -0.389 l -0.187,1.272 c -0.469,0.057 -1.076,0.081 -1.908,0.081 h -1.289 v -3.272 h 2.329 l 0.182,0.938 h 0.357 v -2.416 h -0.356 l -0.183,0.95 h -2.329" /><path
       inkscape:connector-curvature="0"
       id="path4515"
       style="fill:none;stroke:#000000;stroke-width:0.53857005;stroke-linecap:butt;stroke-linejoin:round;stroke-miterlimit:10;stroke-dasharray:none;stroke-opacity:1"
       d="m 275.90453,445.08976 v -56.693" /><path
       inkscape:connector-curvature="0"
       id="path4517"
       style="fill:none;stroke:#000000;stroke-width:0.53857005;stroke-linecap:butt;stroke-linejoin:round;stroke-miterlimit:10;stroke-dasharray:none;stroke-opacity:1"
       d="m 304.27953,445.08976 v -56.693" /><path
       inkscape:connector-curvature="0"
       id="path4519"
       style="fill:none;stroke:#000000;stroke-width:0.53857005;stroke-linecap:butt;stroke-linejoin:round;stroke-miterlimit:10;stroke-dasharray:none;stroke-opacity:1"
       d="m 332.62653,445.08976 v -56.693" /><path
       inkscape:connector-curvature="0"
       id="path4521"
       style="fill:none;stroke:#000000;stroke-width:0.53857005;stroke-linecap:butt;stroke-linejoin:round;stroke-miterlimit:10;stroke-dasharray:none;stroke-opacity:1"
       d="m 360.94453,445.08976 v -56.693" /><path
       inkscape:connector-curvature="0"
       id="path4523"
       style="fill:none;stroke:#000000;stroke-width:0.53857005;stroke-linecap:butt;stroke-linejoin:round;stroke-miterlimit:10;stroke-dasharray:none;stroke-opacity:1"
       d="m 389.29053,445.08976 v -56.693" /><path
       inkscape:connector-curvature="0"
       id="path4525"
       style="fill:none;stroke:#000000;stroke-width:0.53857005;stroke-linecap:butt;stroke-linejoin:round;stroke-miterlimit:10;stroke-dasharray:none;stroke-opacity:1"
       d="m 417.63753,445.08976 v -56.693" /><path
       inkscape:connector-curvature="0"
       id="path4527"
       style="fill:none;stroke:#000000;stroke-width:0.53857005;stroke-linecap:butt;stroke-linejoin:round;stroke-miterlimit:10;stroke-dasharray:none;stroke-opacity:1"
       d="m 275.90453,445.08976 28.347,-56.693" /><path
       inkscape:connector-curvature="0"
       id="path4529"
       style="fill:none;stroke:#000000;stroke-width:0.53857005;stroke-linecap:butt;stroke-linejoin:round;stroke-miterlimit:10;stroke-dasharray:none;stroke-opacity:1"
       d="m 275.90453,445.08976 56.693,-56.693" /><path
       inkscape:connector-curvature="0"
       id="path4531"
       style="fill:none;stroke:#000000;stroke-width:0.53857005;stroke-linecap:butt;stroke-linejoin:round;stroke-miterlimit:10;stroke-dasharray:none;stroke-opacity:1"
       d="m 275.90453,445.08976 85.04,-56.693" /><path
       inkscape:connector-curvature="0"
       id="path4533"
       style="fill:none;stroke:#000000;stroke-width:0.53857005;stroke-linecap:butt;stroke-linejoin:round;stroke-miterlimit:10;stroke-dasharray:none;stroke-opacity:1"
       d="m 275.90453,445.08976 113.386,-56.693" /><path
       inkscape:connector-curvature="0"
       id="path4535"
       style="fill:none;stroke:#000000;stroke-width:0.53857005;stroke-linecap:butt;stroke-linejoin:round;stroke-miterlimit:10;stroke-dasharray:none;stroke-opacity:1"
       d="m 275.90453,445.08976 141.733,-56.693" /><path
       inkscape:connector-curvature="0"
       id="path4537"
       style="fill:none;stroke:#000000;stroke-width:0.53857005;stroke-linecap:butt;stroke-linejoin:round;stroke-miterlimit:10;stroke-dasharray:none;stroke-opacity:1"
       d="m 304.25153,445.08976 -28.347,-56.693" /><path
       inkscape:connector-curvature="0"
       id="path4539"
       style="fill:none;stroke:#000000;stroke-width:0.53857005;stroke-linecap:butt;stroke-linejoin:round;stroke-miterlimit:10;stroke-dasharray:none;stroke-opacity:1"
       d="m 304.27953,445.08976 28.347,-56.693" /><path
       inkscape:connector-curvature="0"
       id="path4541"
       style="fill:none;stroke:#000000;stroke-width:0.53857005;stroke-linecap:butt;stroke-linejoin:round;stroke-miterlimit:10;stroke-dasharray:none;stroke-opacity:1"
       d="m 304.27953,445.08976 56.693,-56.693" /><path
       inkscape:connector-curvature="0"
       id="path4543"
       style="fill:none;stroke:#000000;stroke-width:0.53857005;stroke-linecap:butt;stroke-linejoin:round;stroke-miterlimit:10;stroke-dasharray:none;stroke-opacity:1"
       d="m 304.27953,445.08976 85.04,-56.693" /><path
       inkscape:connector-curvature="0"
       id="path4545"
       style="fill:none;stroke:#000000;stroke-width:0.53857005;stroke-linecap:butt;stroke-linejoin:round;stroke-miterlimit:10;stroke-dasharray:none;stroke-opacity:1"
       d="m 304.27953,445.08976 113.386,-56.693" /><path
       inkscape:connector-curvature="0"
       id="path4547"
       style="fill:none;stroke:#000000;stroke-width:0.53857005;stroke-linecap:butt;stroke-linejoin:round;stroke-miterlimit:10;stroke-dasharray:none;stroke-opacity:1"
       d="m 332.59753,445.08976 -56.693,-56.693" /><path
       inkscape:connector-curvature="0"
       id="path4549"
       style="fill:none;stroke:#000000;stroke-width:0.53857005;stroke-linecap:butt;stroke-linejoin:round;stroke-miterlimit:10;stroke-dasharray:none;stroke-opacity:1"
       d="m 332.62653,445.08976 -28.347,-56.665" /><path
       inkscape:connector-curvature="0"
       id="path4551"
       style="fill:none;stroke:#000000;stroke-width:0.53857005;stroke-linecap:butt;stroke-linejoin:round;stroke-miterlimit:10;stroke-dasharray:none;stroke-opacity:1"
       d="m 332.62653,445.06076 28.346,-56.636" /><path
       inkscape:connector-curvature="0"
       id="path4553"
       style="fill:none;stroke:#000000;stroke-width:0.53857005;stroke-linecap:butt;stroke-linejoin:round;stroke-miterlimit:10;stroke-dasharray:none;stroke-opacity:1"
       d="m 332.62653,445.06076 56.693,-56.636" /><path
       inkscape:connector-curvature="0"
       id="path4555"
       style="fill:none;stroke:#000000;stroke-width:0.53857005;stroke-linecap:butt;stroke-linejoin:round;stroke-miterlimit:10;stroke-dasharray:none;stroke-opacity:1"
       d="m 332.62653,445.06076 85.039,-56.636" /><path
       inkscape:connector-curvature="0"
       id="path4557"
       style="fill:none;stroke:#000000;stroke-width:0.53857005;stroke-linecap:butt;stroke-linejoin:round;stroke-miterlimit:10;stroke-dasharray:none;stroke-opacity:1"
       d="m 360.94453,445.08976 -85.04,-56.693" /><path
       inkscape:connector-curvature="0"
       id="path4559"
       style="fill:none;stroke:#000000;stroke-width:0.53857005;stroke-linecap:butt;stroke-linejoin:round;stroke-miterlimit:10;stroke-dasharray:none;stroke-opacity:1"
       d="m 360.97253,445.08976 -56.693,-56.693" /><path
       inkscape:connector-curvature="0"
       id="path4561"
       style="fill:none;stroke:#000000;stroke-width:0.53857005;stroke-linecap:butt;stroke-linejoin:round;stroke-miterlimit:10;stroke-dasharray:none;stroke-opacity:1"
       d="m 360.97253,445.08976 -28.346,-56.665" /><path
       inkscape:connector-curvature="0"
       id="path4563"
       style="fill:none;stroke:#000000;stroke-width:0.53857005;stroke-linecap:butt;stroke-linejoin:round;stroke-miterlimit:10;stroke-dasharray:none;stroke-opacity:1"
       d="m 360.94453,445.06076 28.346,-56.636" /><path
       inkscape:connector-curvature="0"
       id="path4565"
       style="fill:none;stroke:#000000;stroke-width:0.53857005;stroke-linecap:butt;stroke-linejoin:round;stroke-miterlimit:10;stroke-dasharray:none;stroke-opacity:1"
       d="m 360.94453,445.06076 56.693,-56.636" /><path
       inkscape:connector-curvature="0"
       id="path4567"
       style="fill:none;stroke:#000000;stroke-width:0.53857005;stroke-linecap:butt;stroke-linejoin:round;stroke-miterlimit:10;stroke-dasharray:none;stroke-opacity:1"
       d="m 389.29053,445.08976 28.347,-56.693" /><path
       inkscape:connector-curvature="0"
       id="path4569"
       style="fill:none;stroke:#000000;stroke-width:0.53857005;stroke-linecap:butt;stroke-linejoin:round;stroke-miterlimit:10;stroke-dasharray:none;stroke-opacity:1"
       d="m 389.31953,445.08976 -56.693,-28.347" /><path
       inkscape:connector-curvature="0"
       id="path4571"
       style="fill:none;stroke:#000000;stroke-width:0.53857005;stroke-linecap:butt;stroke-linejoin:round;stroke-miterlimit:10;stroke-dasharray:none;stroke-opacity:1"
       d="m 389.31953,445.08976 -85.04,-56.665" /><path
       inkscape:connector-curvature="0"
       id="path4573"
       style="fill:none;stroke:#000000;stroke-width:0.53857005;stroke-linecap:butt;stroke-linejoin:round;stroke-miterlimit:10;stroke-dasharray:none;stroke-opacity:1"
       d="m 389.29053,445.06076 -113.386,-56.636" /><path
       inkscape:connector-curvature="0"
       id="path4575"
       style="fill:none;stroke:#000000;stroke-width:0.53857005;stroke-linecap:butt;stroke-linejoin:round;stroke-miterlimit:10;stroke-dasharray:none;stroke-opacity:1"
       d="m 417.63753,445.08976 -28.347,-56.693" /><path
       inkscape:connector-curvature="0"
       id="path4577"
       style="fill:none;stroke:#000000;stroke-width:0.53857005;stroke-linecap:butt;stroke-linejoin:round;stroke-miterlimit:10;stroke-dasharray:none;stroke-opacity:1"
       d="m 417.63753,445.08976 -56.693,-56.693" /><path
       inkscape:connector-curvature="0"
       id="path4579"
       style="fill:none;stroke:#000000;stroke-width:0.53857005;stroke-linecap:butt;stroke-linejoin:round;stroke-miterlimit:10;stroke-dasharray:none;stroke-opacity:1"
       d="m 417.66553,445.08976 -85.039,-56.665" /><path
       inkscape:connector-curvature="0"
       id="path4581"
       style="fill:none;stroke:#000000;stroke-width:0.53857005;stroke-linecap:butt;stroke-linejoin:round;stroke-miterlimit:10;stroke-dasharray:none;stroke-opacity:1"
       d="m 417.66553,445.06076 -113.386,-56.636" /><path
       inkscape:connector-curvature="0"
       id="path4583"
       style="fill:none;stroke:#000000;stroke-width:0.53857005;stroke-linecap:butt;stroke-linejoin:round;stroke-miterlimit:10;stroke-dasharray:none;stroke-opacity:1"
       d="m 417.63753,445.03276 -141.733,-56.608" /><path
       inkscape:connector-curvature="0"
       id="path4585"
       style="fill:none;stroke:#000000;stroke-width:0.53857005;stroke-linecap:butt;stroke-linejoin:round;stroke-miterlimit:10;stroke-dasharray:none;stroke-opacity:1"
       d="m 389.31953,445.08976 -56.693,-56.693" /><path
       inkscape:connector-curvature="0"
       id="path4587"
       style="fill:none;stroke:#000000;stroke-width:0.53857005;stroke-linecap:butt;stroke-linejoin:round;stroke-miterlimit:10;stroke-dasharray:none;stroke-opacity:1"
       d="m 332.62653,445.06076 85.039,-56.636" /><path
       inkscape:connector-curvature="0"
       id="path4589"
       style="fill:none;stroke:#000000;stroke-width:0.53857005;stroke-linecap:butt;stroke-linejoin:round;stroke-miterlimit:10;stroke-dasharray:none;stroke-opacity:1"
       d="m 389.29053,445.08976 -28.346,-56.693" /><path
       inkscape:connector-curvature="0"
       id="path4591"
       style="fill:#000000;fill-opacity:1;fill-rule:nonzero;stroke:none;stroke-width:0.1"
       d="m 248.76953,385.45176 c 0.589,0 1.088,-0.149 1.442,-0.447 0.322,-0.282 0.532,-0.705 0.532,-1.22 -0.01,-0.57 -0.16,-1.087 -0.48,-1.481 -0.336,-0.378 -0.755,-0.65 -1.309,-0.769 l -0.007,-0.058 c 0.412,-0.069 0.757,-0.299 1,-0.616 0.232,-0.285 0.366,-0.705 0.366,-1.17 0,-0.815 -0.252,-1.501 -0.756,-1.997 -0.519,-0.476 -1.195,-0.742 -2.072,-0.742 -0.458,0 -0.793,0.094 -1.078,0.281 l -0.481,-2.781 h -1.582 l 1.417,8.066 c 0.158,1.014 0.503,1.742 0.986,2.218 0.473,0.482 1.159,0.716 2.022,0.716 z m -0.139,-0.586 c -0.272,0.029 -0.47,-0.069 -0.609,-0.206 -0.142,-0.107 -0.26,-0.369 -0.363,-0.694 -0.118,-0.296 -0.207,-0.809 -0.314,-1.451 l -0.843,-4.686 c 0.062,-0.054 0.219,-0.118 0.384,-0.169 0.141,-0.02 0.336,-0.075 0.512,-0.075 0.191,0.022 0.436,0.088 0.65,0.265 0.204,0.179 0.389,0.424 0.519,0.738 0.113,0.336 0.195,0.661 0.195,1.039 -0.016,0.519 -0.107,0.891 -0.32,1.141 -0.222,0.278 -0.505,0.386 -0.876,0.409 l 0.092,0.575 c 0.497,0.007 0.905,0.187 1.181,0.539 0.269,0.374 0.416,0.832 0.416,1.438 -0.014,0.368 -0.058,0.639 -0.172,0.839 -0.138,0.227 -0.265,0.298 -0.452,0.298" /><path
       inkscape:connector-curvature="0"
       id="path4593"
       style="fill:#000000;fill-opacity:1;fill-rule:nonzero;stroke:none;stroke-width:0.1"
       d="m 275.81953,377.36276 v -0.311 h -2.584 v 0.311 l 0.891,0.158 2.687,7.531 h 1.119 l 2.794,-7.531 0.995,-0.158 v -0.311 h -3.322 v 0.311 l 1.055,0.158 -0.785,2.303 h -3.109 l -0.795,-2.303 z m 1.271,6.845 -1.354,-3.856 h 2.75 z" /><path
       inkscape:connector-curvature="0"
       id="path4595"
       style="fill:#000000;fill-opacity:1;fill-rule:nonzero;stroke:none;stroke-width:0.1"
       d="m 307.02453,383.04576 c -0.004,0.483 -0.151,0.831 -0.452,1.05 -0.32,0.237 -0.787,0.328 -1.462,0.328 h -1.213 v -2.972 h 1.283 c 0.61,0 1.097,0.125 1.396,0.375 0.278,0.258 0.448,0.656 0.448,1.219 z m 0.589,-3.717 c 0,0.558 -0.184,0.954 -0.55,1.211 -0.384,0.26 -0.954,0.384 -1.761,0.384 h -1.405 v -3.308 c 0.511,-0.012 1.112,-0.036 1.721,-0.036 0.665,0.024 1.165,0.142 1.497,0.425 0.331,0.299 0.498,0.724 0.498,1.324 z m -5.855,-2.277 v 0.311 l 1.008,0.158 v 6.969 l -1.008,0.151 v 0.311 h 3.591 c 0.984,0 1.724,-0.148 2.184,-0.444 0.454,-0.28 0.691,-0.762 0.691,-1.403 -0.004,-0.446 -0.142,-0.855 -0.425,-1.18 -0.311,-0.315 -0.679,-0.54 -1.191,-0.65 0.675,-0.048 1.253,-0.28 1.639,-0.618 0.375,-0.307 0.58,-0.774 0.58,-1.305 -0.005,-0.755 -0.261,-1.328 -0.783,-1.717 -0.531,-0.383 -1.281,-0.583 -2.279,-0.583 h -2.507 -1.5" /><path
       inkscape:connector-curvature="0"
       id="path4597"
       style="fill:#000000;fill-opacity:1;fill-rule:nonzero;stroke:none;stroke-width:0.1"
       d="m 334.24653,376.95176 c -1.284,0 -2.265,0.348 -2.975,1.044 -0.73,0.715 -1.066,1.673 -1.066,2.929 -0.031,1.368 0.342,2.386 1.025,3.082 0.678,0.711 1.696,1.045 3.039,1.045 0.797,0 1.692,-0.099 2.63,-0.297 l 0.034,-1.703 h -0.386 l -0.176,1.009 c -0.292,0.197 -0.59,0.296 -0.952,0.386 -0.362,0.093 -0.728,0.136 -1.103,0.136 -1.004,0.023 -1.735,-0.296 -2.195,-0.889 -0.463,-0.573 -0.691,-1.512 -0.691,-2.756 -0.006,-1.142 0.241,-2.023 0.722,-2.628 0.469,-0.59 1.184,-0.906 2.106,-0.906 0.43,0.016 0.864,0.053 1.258,0.159 0.394,0.136 0.707,0.248 0.938,0.427 l 0.215,1.162 h 0.382 l -0.035,-1.833 c -0.86,-0.234 -1.783,-0.367 -2.77,-0.367" /><path
       inkscape:connector-curvature="0"
       id="path4599"
       style="fill:#000000;fill-opacity:1;fill-rule:nonzero;stroke:none;stroke-width:0.1"
       d="m 365.10553,381.06876 c -0.031,1.129 -0.298,1.935 -0.894,2.503 -0.627,0.594 -1.443,0.852 -2.546,0.852 h -1.061 v -6.797 c 0.441,-0.023 1.031,-0.047 1.679,-0.047 0.943,0.024 1.677,0.284 2.135,0.852 0.456,0.574 0.687,1.447 0.687,2.637 z m -3.062,3.883 c 1.444,0 2.532,-0.324 3.234,-0.972 0.681,-0.624 1.053,-1.622 1.053,-2.922 -0.006,-1.284 -0.338,-2.312 -1.015,-2.99 -0.677,-0.65 -1.687,-1.016 -3.032,-1.016 l -2.811,0.023 h -1.007 v 0.311 l 1.007,0.158 v 6.946 l -1.007,0.151 v 0.311 h 3.578" /><path
       inkscape:connector-curvature="0"
       id="path4601"
       style="fill:#000000;fill-opacity:1;fill-rule:nonzero;stroke:none;stroke-width:0.1"
       d="m 386.75453,377.36276 1.007,0.158 v 6.969 l -1.007,0.151 v 0.311 h 5.873 v -1.881 h -0.384 l -0.186,1.272 c -0.45,0.057 -1.065,0.081 -1.888,0.081 h -1.276 v -3.072 h 2.108 l 0.181,0.938 h 0.372 v -2.416 h -0.372 l -0.181,0.95 h -2.108 v -3.244 h 1.539 c 0.995,0.024 1.658,0.031 1.969,0.094 l 0.332,1.453 h 0.385 l -0.111,-2.075 h -6.253 v 0.311" /><path
       inkscape:connector-curvature="0"
       id="path4603"
       style="fill:#000000;fill-opacity:1;fill-rule:nonzero;stroke:none;stroke-width:0.1"
       d="m 417.30453,380.62376 v -3.103 l 1.306,-0.158 v -0.311 h -3.369 v 0.311 l 0.931,0.158 v 6.969 l -1.007,0.151 v 0.311 h 5.912 v -1.881 h -0.389 l -0.187,1.272 c -0.469,0.057 -1.076,0.081 -1.908,0.081 h -1.289 v -3.272 h 2.329 l 0.182,0.938 h 0.357 v -2.416 h -0.356 l -0.183,0.95 h -2.329" /></g></svg>